<svg viewBox="0 0 48 12" fill="#fff" stroke="none" xmlns="http://www.w3.org/2000/svg" xmlns:svg="http://www.w3.org/2000/svg">
  <path d="m 0,5e-4 v 12 h 12 v -12 z m 5.5664,0.50074 c 0.05729,-6.19e-4 0.11442,-3.24e-4 0.17177,5.16e-4 0.15295,0.0022 0.30597,0.0096 0.45888,0.02222 1.835,0.15153 3.6383,1.0609 4.6731,2.7947 0.09578,0.16047 0.09205,0.12092 0.11037,0.12144 0.01832,5.2e-4 0.15877,-0.02771 0.32804,-0.15451 0.33853,-0.2536 0.69144,-0.82662 0.69142,-1.324 l -0.0043,7.9881 c 2.52e-4,-0.81197 -0.42864,-1.3648 -0.82784,-1.6175 -0.1996,-0.12631 -0.38632,-0.16491 -0.46632,-0.16381 -0.08005,0.0011 -0.04927,-0.01768 -0.08433,0.03927 -0.95834,1.5562 -2.0918,2.5235 -3.3163,2.9822 -1.2245,0.45877 -2.5143,0.37042 -3.6047,-0.08785 -2.1807,-0.91655 -3.6958,-3.1829 -3.6958,-5.6152 0,-2.6232 2.0113,-4.4031 4.378,-4.8653 0.38828,-0.07584 0.78714,-0.11608 1.1881,-0.12041 z" />
  <path d="M 24,9.9515 C 24.000596,8.0372 22.495,7.1523 21.9846,7.9811 18.318,13.9351 12.5,9.9953 12.5,5.4894 12.5,0.6566 19.697,-0.704 22.2322,3.5435 22.88014,4.6291 24.0001,3.29628 24,1.9639" />
  <path d="M 36.000249,0 V 12 H 23.999999 V 0 Z m -5.566516,0.50074 c -0.05729,-6.19e-4 -0.114422,-3.24e-4 -0.171774,5.16e-4 -0.152953,0.0022 -0.305976,0.0096 -0.458889,0.02222 -1.835038,0.15153 -3.638376,1.0609 -4.673197,2.7947 -0.09578,0.16047 -0.09205,0.12092 -0.110373,0.12144 -0.01832,5.2e-4 -0.158773,-0.02771 -0.328046,-0.15451 -0.338537,-0.2536 -0.691455,-0.82662 -0.691435,-1.324 l 0.0043,7.9881 c -2.52e-4,-0.81197 0.428649,-1.3648 0.827858,-1.6175 0.199604,-0.12631 0.386328,-0.16491 0.466329,-0.16381 0.08005,0.0011 0.04927,-0.01768 0.08433,0.03927 0.95836,1.5562 2.091843,2.5235 3.316369,2.9822 1.224525,0.45877 2.514352,0.37042 3.604775,-0.08785 2.180745,-0.91655 3.695877,-3.1829 3.695877,-5.6152 0,-2.6232 -2.011342,-4.4031 -4.378091,-4.8653 -0.388288,-0.07584 -0.787157,-0.11608 -1.188125,-0.12041 z" />
  <path d="M 36,9.951 C 35.999404,8.0367 37.50566,7.1518 38.016026,7.9806 41.682384,13.9346 47.5,9.9948 47.5,5.4889 47.5,0.6561 40.303475,-0.7045 37.768443,3.543 37.120546,4.6286 35.9999,3.29578 36,1.9634" />
</svg>
